<mxfile host="app.diagrams.net" modified="2024-06-30T18:15:10.461Z" agent="Mozilla/5.0 (X11; Linux x86_64) AppleWebKit/537.36 (KHTML, like Gecko) Chrome/126.0.0.0 Safari/537.36" etag="B-74TpAqwUpBFtj-fvMM" version="24.6.4" type="device">
  <diagram name="Page-1" id="6OEyy-C7DZOmTnQXfXMI">
    <mxGraphModel dx="839" dy="588" grid="1" gridSize="10" guides="1" tooltips="1" connect="1" arrows="1" fold="1" page="1" pageScale="1" pageWidth="827" pageHeight="1169" background="#ffffff" math="0" shadow="0">
      <root>
        <mxCell id="0" />
        <mxCell id="1" parent="0" />
        <mxCell id="o9gFNpSVNIxK3RTzQ6jp-7" value="SYM" style="whiteSpace=wrap;html=1;aspect=fixed;fontSize=16;fontFamily=Helvetica;fontStyle=1;fillColor=#f5f5f5;fontColor=#333333;strokeColor=#666666;" parent="1" vertex="1">
          <mxGeometry x="240" y="160" width="40" height="40" as="geometry" />
        </mxCell>
        <mxCell id="o9gFNpSVNIxK3RTzQ6jp-35" value="SFT" style="whiteSpace=wrap;html=1;aspect=fixed;fontSize=16;fontFamily=Helvetica;fontStyle=1;fillColor=#f5f5f5;strokeColor=#666666;fontColor=#333333;" parent="1" vertex="1">
          <mxGeometry x="280" y="120" width="40" height="40" as="geometry" />
        </mxCell>
        <mxCell id="o9gFNpSVNIxK3RTzQ6jp-36" value="FUN" style="whiteSpace=wrap;html=1;aspect=fixed;fontSize=16;fontFamily=Helvetica;fontStyle=1;fillColor=#f5f5f5;fontColor=#333333;strokeColor=#666666;" parent="1" vertex="1">
          <mxGeometry x="320" y="160" width="40" height="40" as="geometry" />
        </mxCell>
        <mxCell id="LWqwvK-Ae-HrT9byjvja-79" value="SYM" style="whiteSpace=wrap;html=1;aspect=fixed;fontSize=16;fontFamily=Helvetica;fontStyle=1;fillColor=#f5f5f5;fontColor=#333333;strokeColor=#666666;" parent="1" vertex="1">
          <mxGeometry x="160" y="160" width="40" height="40" as="geometry" />
        </mxCell>
        <mxCell id="LWqwvK-Ae-HrT9byjvja-80" value="NUM" style="whiteSpace=wrap;html=1;aspect=fixed;fontSize=16;fontFamily=Helvetica;fontStyle=1;fillColor=#f5f5f5;fontColor=#333333;strokeColor=#666666;" parent="1" vertex="1">
          <mxGeometry x="80" y="160" width="40" height="40" as="geometry" />
        </mxCell>
        <mxCell id="LWqwvK-Ae-HrT9byjvja-81" value="EXT" style="whiteSpace=wrap;html=1;aspect=fixed;fontSize=16;fontFamily=Helvetica;fontStyle=1;fillColor=#f5f5f5;fontColor=#333333;strokeColor=#666666;align=center;verticalAlign=middle;labelPosition=center;verticalLabelPosition=middle;" parent="1" vertex="1">
          <mxGeometry x="120" y="160" width="40" height="40" as="geometry" />
        </mxCell>
        <mxCell id="lMCzv5Cu2bGb6w6qwe8L-2" value="k" style="whiteSpace=wrap;html=1;aspect=fixed;fontSize=16;fontFamily=Helvetica;fontStyle=1;fillColor=#f5f5f5;fontColor=#333333;strokeColor=#666666;" parent="1" vertex="1">
          <mxGeometry x="240" y="80" width="40" height="40" as="geometry" />
        </mxCell>
        <mxCell id="lMCzv5Cu2bGb6w6qwe8L-3" value="s" style="whiteSpace=wrap;html=1;aspect=fixed;fontSize=16;fontFamily=Helvetica;fontStyle=1;fillColor=#b0e3e6;strokeColor=#0e8088;" parent="1" vertex="1">
          <mxGeometry x="80" y="40" width="40" height="40" as="geometry" />
        </mxCell>
        <mxCell id="lMCzv5Cu2bGb6w6qwe8L-4" value="t" style="whiteSpace=wrap;html=1;aspect=fixed;fontSize=16;fontFamily=Helvetica;fontStyle=1;fillColor=#b0e3e6;strokeColor=#0e8088;" parent="1" vertex="1">
          <mxGeometry x="120" y="40" width="40" height="40" as="geometry" />
        </mxCell>
        <mxCell id="lMCzv5Cu2bGb6w6qwe8L-5" value="x" style="whiteSpace=wrap;html=1;aspect=fixed;fontSize=16;fontFamily=Helvetica;fontStyle=1;fillColor=#f5f5f5;fontColor=#333333;strokeColor=#666666;" parent="1" vertex="1">
          <mxGeometry x="40" y="80" width="40" height="40" as="geometry" />
        </mxCell>
        <mxCell id="lMCzv5Cu2bGb6w6qwe8L-6" value="c" style="whiteSpace=wrap;html=1;aspect=fixed;fontSize=16;fontFamily=Helvetica;fontStyle=1;fillColor=#f5f5f5;fontColor=#333333;strokeColor=#666666;" parent="1" vertex="1">
          <mxGeometry x="80" y="80" width="40" height="40" as="geometry" />
        </mxCell>
        <mxCell id="lMCzv5Cu2bGb6w6qwe8L-7" value="j" style="whiteSpace=wrap;html=1;aspect=fixed;fontSize=16;fontFamily=Helvetica;fontStyle=1;fillColor=#f5f5f5;fontColor=#333333;strokeColor=#666666;" parent="1" vertex="1">
          <mxGeometry x="240" width="40" height="40" as="geometry" />
        </mxCell>
        <mxCell id="lMCzv5Cu2bGb6w6qwe8L-8" value="⏎" style="whiteSpace=wrap;html=1;aspect=fixed;fontSize=16;fontFamily=Helvetica;fontStyle=1;fillColor=#f5f5f5;fontColor=#333333;strokeColor=#666666;" parent="1" vertex="1">
          <mxGeometry x="240" y="120" width="40" height="40" as="geometry" />
        </mxCell>
        <mxCell id="lMCzv5Cu2bGb6w6qwe8L-9" value="v" style="whiteSpace=wrap;html=1;aspect=fixed;fontSize=16;fontFamily=Helvetica;fontStyle=1;fillColor=#f5f5f5;fontColor=#333333;strokeColor=#666666;" parent="1" vertex="1">
          <mxGeometry x="160" y="80" width="40" height="40" as="geometry" />
        </mxCell>
        <mxCell id="lMCzv5Cu2bGb6w6qwe8L-10" value="y" style="whiteSpace=wrap;html=1;aspect=fixed;fontSize=16;fontFamily=Helvetica;fontStyle=1;fillColor=#f5f5f5;fontColor=#333333;strokeColor=#666666;" parent="1" vertex="1">
          <mxGeometry x="360" width="40" height="40" as="geometry" />
        </mxCell>
        <mxCell id="lMCzv5Cu2bGb6w6qwe8L-11" value="m" style="whiteSpace=wrap;html=1;aspect=fixed;fontSize=16;fontFamily=Helvetica;fontStyle=1;fillColor=#f5f5f5;fontColor=#333333;strokeColor=#666666;" parent="1" vertex="1">
          <mxGeometry x="240" y="40" width="40" height="40" as="geometry" />
        </mxCell>
        <mxCell id="lMCzv5Cu2bGb6w6qwe8L-12" value="r" style="whiteSpace=wrap;html=1;aspect=fixed;fontSize=16;fontFamily=Helvetica;fontStyle=1;fillColor=#b0e3e6;strokeColor=#0e8088;" parent="1" vertex="1">
          <mxGeometry x="40" y="40" width="40" height="40" as="geometry" />
        </mxCell>
        <mxCell id="lMCzv5Cu2bGb6w6qwe8L-13" value="g" style="whiteSpace=wrap;html=1;aspect=fixed;fontSize=16;fontFamily=Helvetica;fontStyle=1;fillColor=#f5f5f5;fontColor=#333333;strokeColor=#666666;" parent="1" vertex="1">
          <mxGeometry x="160" y="40" width="40" height="40" as="geometry" />
        </mxCell>
        <mxCell id="lMCzv5Cu2bGb6w6qwe8L-14" value="b" style="whiteSpace=wrap;html=1;aspect=fixed;fontSize=16;fontFamily=Helvetica;fontStyle=1;fillColor=#f5f5f5;fontColor=#333333;strokeColor=#666666;" parent="1" vertex="1">
          <mxGeometry x="160" width="40" height="40" as="geometry" />
        </mxCell>
        <mxCell id="lMCzv5Cu2bGb6w6qwe8L-15" value="." style="whiteSpace=wrap;html=1;aspect=fixed;fontSize=16;fontFamily=Helvetica;fontStyle=1;fillColor=#f5f5f5;fontColor=#333333;strokeColor=#666666;" parent="1" vertex="1">
          <mxGeometry x="360" y="80" width="40" height="40" as="geometry" />
        </mxCell>
        <mxCell id="lMCzv5Cu2bGb6w6qwe8L-16" value="z" style="whiteSpace=wrap;html=1;aspect=fixed;fontSize=16;fontFamily=Helvetica;fontStyle=1;fillColor=#f5f5f5;fontColor=#333333;strokeColor=#666666;" parent="1" vertex="1">
          <mxGeometry y="80" width="40" height="40" as="geometry" />
        </mxCell>
        <mxCell id="lMCzv5Cu2bGb6w6qwe8L-17" value="d" style="whiteSpace=wrap;html=1;aspect=fixed;fontSize=16;fontFamily=Helvetica;fontStyle=1;fillColor=#b0e3e6;strokeColor=#0e8088;" parent="1" vertex="1">
          <mxGeometry x="120" y="80" width="40" height="40" as="geometry" />
        </mxCell>
        <mxCell id="lMCzv5Cu2bGb6w6qwe8L-18" value="q" style="whiteSpace=wrap;html=1;aspect=fixed;fontSize=16;fontFamily=Helvetica;fontStyle=1;fillColor=#f5f5f5;fontColor=#333333;strokeColor=#666666;" parent="1" vertex="1">
          <mxGeometry width="40" height="40" as="geometry" />
        </mxCell>
        <mxCell id="lMCzv5Cu2bGb6w6qwe8L-19" value="w" style="whiteSpace=wrap;html=1;aspect=fixed;fontSize=16;fontFamily=Helvetica;fontStyle=1;fillColor=#f5f5f5;fontColor=#333333;strokeColor=#666666;" parent="1" vertex="1">
          <mxGeometry x="40" width="40" height="40" as="geometry" />
        </mxCell>
        <mxCell id="lMCzv5Cu2bGb6w6qwe8L-20" value="f" style="whiteSpace=wrap;html=1;aspect=fixed;fontSize=16;fontFamily=Helvetica;fontStyle=1;fillColor=#f5f5f5;fontColor=#333333;strokeColor=#666666;" parent="1" vertex="1">
          <mxGeometry x="80" width="40" height="40" as="geometry" />
        </mxCell>
        <mxCell id="lMCzv5Cu2bGb6w6qwe8L-21" value="p" style="whiteSpace=wrap;html=1;aspect=fixed;fontSize=16;fontFamily=Helvetica;fontStyle=1;fillColor=#f5f5f5;fontColor=#333333;strokeColor=#666666;" parent="1" vertex="1">
          <mxGeometry x="120" width="40" height="40" as="geometry" />
        </mxCell>
        <mxCell id="lMCzv5Cu2bGb6w6qwe8L-22" value="," style="whiteSpace=wrap;html=1;aspect=fixed;fontSize=16;fontFamily=Helvetica;fontStyle=1;fillColor=#f5f5f5;fontColor=#333333;strokeColor=#666666;" parent="1" vertex="1">
          <mxGeometry x="320" y="80" width="40" height="40" as="geometry" />
        </mxCell>
        <mxCell id="lMCzv5Cu2bGb6w6qwe8L-23" value="i" style="whiteSpace=wrap;html=1;aspect=fixed;fontSize=16;fontFamily=Helvetica;fontStyle=1;fillColor=#b0e3e6;strokeColor=#0e8088;" parent="1" vertex="1">
          <mxGeometry x="360" y="40" width="40" height="40" as="geometry" />
        </mxCell>
        <mxCell id="lMCzv5Cu2bGb6w6qwe8L-24" value="n" style="whiteSpace=wrap;html=1;aspect=fixed;fontSize=16;fontFamily=Helvetica;fontStyle=1;fillColor=#b0e3e6;strokeColor=#0e8088;" parent="1" vertex="1">
          <mxGeometry x="280" y="40" width="40" height="40" as="geometry" />
        </mxCell>
        <mxCell id="lMCzv5Cu2bGb6w6qwe8L-25" value="e" style="whiteSpace=wrap;html=1;aspect=fixed;fontSize=16;fontFamily=Helvetica;fontStyle=1;fillColor=#b0e3e6;strokeColor=#0e8088;" parent="1" vertex="1">
          <mxGeometry x="320" y="40" width="40" height="40" as="geometry" />
        </mxCell>
        <mxCell id="lMCzv5Cu2bGb6w6qwe8L-26" value="o" style="whiteSpace=wrap;html=1;aspect=fixed;fontSize=16;fontFamily=Helvetica;fontStyle=1;fillColor=#b0e3e6;strokeColor=#0e8088;" parent="1" vertex="1">
          <mxGeometry x="400" y="40" width="40" height="40" as="geometry" />
        </mxCell>
        <mxCell id="lMCzv5Cu2bGb6w6qwe8L-27" value="a" style="whiteSpace=wrap;html=1;aspect=fixed;fontSize=16;fontFamily=Helvetica;fontStyle=1;fillColor=#b0e3e6;strokeColor=#0e8088;" parent="1" vertex="1">
          <mxGeometry y="40" width="40" height="40" as="geometry" />
        </mxCell>
        <mxCell id="lMCzv5Cu2bGb6w6qwe8L-28" value="h" style="whiteSpace=wrap;html=1;aspect=fixed;fontSize=16;fontFamily=Helvetica;fontStyle=1;fillColor=#b0e3e6;strokeColor=#0e8088;" parent="1" vertex="1">
          <mxGeometry x="280" y="80" width="40" height="40" as="geometry" />
        </mxCell>
        <mxCell id="lMCzv5Cu2bGb6w6qwe8L-29" value="u" style="whiteSpace=wrap;html=1;aspect=fixed;fontSize=16;fontFamily=Helvetica;fontStyle=1;fillColor=#f5f5f5;fontColor=#333333;strokeColor=#666666;" parent="1" vertex="1">
          <mxGeometry x="320" width="40" height="40" as="geometry" />
        </mxCell>
        <mxCell id="lMCzv5Cu2bGb6w6qwe8L-30" value="&#39;" style="whiteSpace=wrap;html=1;aspect=fixed;fontSize=16;fontFamily=Helvetica;fontStyle=1;fillColor=#f5f5f5;fontColor=#333333;strokeColor=#666666;" parent="1" vertex="1">
          <mxGeometry x="400" width="40" height="40" as="geometry" />
        </mxCell>
        <mxCell id="lMCzv5Cu2bGb6w6qwe8L-31" value="l" style="whiteSpace=wrap;html=1;aspect=fixed;fontSize=16;fontFamily=Helvetica;fontStyle=1;fillColor=#f5f5f5;fontColor=#333333;strokeColor=#666666;" parent="1" vertex="1">
          <mxGeometry x="280" width="40" height="40" as="geometry" />
        </mxCell>
        <mxCell id="lMCzv5Cu2bGb6w6qwe8L-32" value="/" style="whiteSpace=wrap;html=1;aspect=fixed;fontSize=16;fontFamily=Helvetica;fontStyle=1;fillColor=#f5f5f5;fontColor=#333333;strokeColor=#666666;" parent="1" vertex="1">
          <mxGeometry x="400" y="80" width="40" height="40" as="geometry" />
        </mxCell>
        <mxCell id="lMCzv5Cu2bGb6w6qwe8L-33" value="⌫" style="whiteSpace=wrap;html=1;aspect=fixed;fontSize=16;fontFamily=Helvetica;fontStyle=1;fillColor=#f5f5f5;strokeColor=#666666;fontColor=#333333;" parent="1" vertex="1">
          <mxGeometry x="320" y="120" width="40" height="40" as="geometry" />
        </mxCell>
        <mxCell id="lMCzv5Cu2bGb6w6qwe8L-35" value="⎋" style="whiteSpace=wrap;html=1;aspect=fixed;fontSize=16;fontFamily=Helvetica;fontStyle=1;fillColor=#f5f5f5;fontColor=#333333;strokeColor=#666666;" parent="1" vertex="1">
          <mxGeometry x="160" y="120" width="40" height="40" as="geometry" />
        </mxCell>
        <mxCell id="lMCzv5Cu2bGb6w6qwe8L-36" value="⇥" style="whiteSpace=wrap;html=1;aspect=fixed;fontSize=16;fontFamily=Helvetica;fontStyle=1;fillColor=#f5f5f5;fontColor=#333333;strokeColor=#666666;" parent="1" vertex="1">
          <mxGeometry x="80" y="120" width="40" height="40" as="geometry" />
        </mxCell>
        <mxCell id="lMCzv5Cu2bGb6w6qwe8L-37" value="␣" style="whiteSpace=wrap;html=1;aspect=fixed;fontSize=16;fontFamily=Helvetica;fontStyle=1;fillColor=#f5f5f5;fontColor=#333333;strokeColor=#666666;align=center;verticalAlign=middle;labelPosition=center;verticalLabelPosition=middle;" parent="1" vertex="1">
          <mxGeometry x="120" y="120" width="40" height="40" as="geometry" />
        </mxCell>
        <mxCell id="lMCzv5Cu2bGb6w6qwe8L-44" value="" style="whiteSpace=wrap;html=1;aspect=fixed;fontSize=16;fillColor=#f5f5f5;strokeColor=#666666;fontFamily=Helvetica;fontColor=#333333;fontStyle=1" parent="1" vertex="1">
          <mxGeometry x="240" y="320" width="40" height="40" as="geometry" />
        </mxCell>
        <mxCell id="lMCzv5Cu2bGb6w6qwe8L-45" value="^" style="whiteSpace=wrap;html=1;aspect=fixed;fontSize=16;fillColor=#f5f5f5;strokeColor=#666666;fontFamily=Helvetica;fontStyle=1;fontColor=#333333;" parent="1" vertex="1">
          <mxGeometry x="80" y="280" width="40" height="40" as="geometry" />
        </mxCell>
        <mxCell id="lMCzv5Cu2bGb6w6qwe8L-46" value="⇧" style="whiteSpace=wrap;html=1;aspect=fixed;fontSize=16;fillColor=#f5f5f5;strokeColor=#666666;fontFamily=Helvetica;fontStyle=1;fontColor=#333333;" parent="1" vertex="1">
          <mxGeometry x="120" y="280" width="40" height="40" as="geometry" />
        </mxCell>
        <mxCell id="lMCzv5Cu2bGb6w6qwe8L-47" value="" style="whiteSpace=wrap;html=1;aspect=fixed;fontSize=16;fillColor=#f5f5f5;strokeColor=#666666;fontFamily=Helvetica;fontColor=#333333;fontStyle=1" parent="1" vertex="1">
          <mxGeometry x="80" y="320" width="40" height="40" as="geometry" />
        </mxCell>
        <mxCell id="lMCzv5Cu2bGb6w6qwe8L-48" value="" style="whiteSpace=wrap;html=1;aspect=fixed;fontSize=16;fillColor=#f5f5f5;strokeColor=#666666;fontFamily=Helvetica;fontColor=#333333;fontStyle=1" parent="1" vertex="1">
          <mxGeometry x="40" y="320" width="40" height="40" as="geometry" />
        </mxCell>
        <mxCell id="lMCzv5Cu2bGb6w6qwe8L-49" value="" style="whiteSpace=wrap;html=1;aspect=fixed;fontSize=16;fillColor=#f5f5f5;strokeColor=#666666;fontFamily=Helvetica;fontColor=#333333;fontStyle=1;" parent="1" vertex="1">
          <mxGeometry x="360" y="320" width="40" height="40" as="geometry" />
        </mxCell>
        <mxCell id="lMCzv5Cu2bGb6w6qwe8L-51" value="" style="whiteSpace=wrap;html=1;aspect=fixed;fontSize=16;fillColor=#f5f5f5;strokeColor=#666666;fontFamily=Helvetica;fontColor=#333333;fontStyle=1" parent="1" vertex="1">
          <mxGeometry x="160" y="320" width="40" height="40" as="geometry" />
        </mxCell>
        <mxCell id="lMCzv5Cu2bGb6w6qwe8L-52" value="⇲" style="whiteSpace=wrap;html=1;aspect=fixed;fontSize=16;fillColor=#f5f5f5;strokeColor=#666666;fontFamily=Helvetica;fontStyle=1;fontColor=#333333;" parent="1" vertex="1">
          <mxGeometry x="360" y="240" width="40" height="40" as="geometry" />
        </mxCell>
        <mxCell id="lMCzv5Cu2bGb6w6qwe8L-53" value="" style="whiteSpace=wrap;html=1;aspect=fixed;fontSize=16;fillColor=#f5f5f5;strokeColor=#666666;fontFamily=Helvetica;fontColor=#333333;fontStyle=1" parent="1" vertex="1">
          <mxGeometry x="160" y="360" width="40" height="40" as="geometry" />
        </mxCell>
        <mxCell id="lMCzv5Cu2bGb6w6qwe8L-54" value="" style="whiteSpace=wrap;html=1;aspect=fixed;fontSize=16;fillColor=#f5f5f5;strokeColor=#666666;fontFamily=Helvetica;fontColor=#333333;fontStyle=1;" parent="1" vertex="1">
          <mxGeometry x="400" y="320" width="40" height="40" as="geometry" />
        </mxCell>
        <mxCell id="lMCzv5Cu2bGb6w6qwe8L-55" value="⎇" style="whiteSpace=wrap;html=1;aspect=fixed;fontSize=16;fillColor=#f5f5f5;strokeColor=#666666;fontFamily=Helvetica;fontStyle=1;fontColor=#333333;" parent="1" vertex="1">
          <mxGeometry x="40" y="280" width="40" height="40" as="geometry" />
        </mxCell>
        <mxCell id="lMCzv5Cu2bGb6w6qwe8L-56" value="✦" style="whiteSpace=wrap;html=1;aspect=fixed;fontSize=16;fillColor=#f5f5f5;strokeColor=#666666;fontFamily=Helvetica;fontStyle=1;fontColor=#333333;" parent="1" vertex="1">
          <mxGeometry y="280" width="40" height="40" as="geometry" />
        </mxCell>
        <mxCell id="lMCzv5Cu2bGb6w6qwe8L-57" value="" style="whiteSpace=wrap;html=1;aspect=fixed;fontSize=16;fillColor=#f5f5f5;strokeColor=#666666;fontFamily=Helvetica;fontColor=#333333;fontStyle=1" parent="1" vertex="1">
          <mxGeometry x="80" y="360" width="40" height="40" as="geometry" />
        </mxCell>
        <mxCell id="lMCzv5Cu2bGb6w6qwe8L-58" value="" style="whiteSpace=wrap;html=1;aspect=fixed;fontSize=16;fillColor=#f5f5f5;strokeColor=#666666;fontFamily=Helvetica;fontColor=#333333;fontStyle=1" parent="1" vertex="1">
          <mxGeometry y="320" width="40" height="40" as="geometry" />
        </mxCell>
        <mxCell id="lMCzv5Cu2bGb6w6qwe8L-60" value="←" style="whiteSpace=wrap;html=1;aspect=fixed;fontSize=16;fillColor=#f5f5f5;strokeColor=#666666;fontFamily=Helvetica;fontStyle=1;fontColor=#333333;" parent="1" vertex="1">
          <mxGeometry x="280" y="280" width="40" height="40" as="geometry" />
        </mxCell>
        <mxCell id="lMCzv5Cu2bGb6w6qwe8L-61" value="→" style="whiteSpace=wrap;html=1;aspect=fixed;fontSize=16;fillColor=#f5f5f5;strokeColor=#666666;fontFamily=Helvetica;fontStyle=1;fontColor=#333333;" parent="1" vertex="1">
          <mxGeometry x="360" y="280" width="40" height="40" as="geometry" />
        </mxCell>
        <mxCell id="lMCzv5Cu2bGb6w6qwe8L-62" value="↓" style="whiteSpace=wrap;html=1;aspect=fixed;fontSize=16;fillColor=#f5f5f5;strokeColor=#666666;fontFamily=Helvetica;fontStyle=1;fontColor=#333333;" parent="1" vertex="1">
          <mxGeometry x="320" y="280" width="40" height="40" as="geometry" />
        </mxCell>
        <mxCell id="lMCzv5Cu2bGb6w6qwe8L-63" value="⇟" style="whiteSpace=wrap;html=1;aspect=fixed;fontSize=16;fillColor=#f5f5f5;strokeColor=#666666;fontFamily=Helvetica;fontStyle=1;fontColor=#333333;" parent="1" vertex="1">
          <mxGeometry x="240" y="280" width="40" height="40" as="geometry" />
        </mxCell>
        <mxCell id="lMCzv5Cu2bGb6w6qwe8L-64" value="❖" style="whiteSpace=wrap;html=1;aspect=fixed;fontSize=16;fillColor=#f5f5f5;strokeColor=#666666;fontFamily=Helvetica;fontStyle=1;fontColor=#333333;" parent="1" vertex="1">
          <mxGeometry x="160" y="280" width="40" height="40" as="geometry" />
        </mxCell>
        <mxCell id="lMCzv5Cu2bGb6w6qwe8L-65" value="⇞" style="whiteSpace=wrap;html=1;aspect=fixed;fontSize=16;fillColor=#f5f5f5;strokeColor=#666666;fontFamily=Helvetica;fontStyle=1;fontColor=#333333;" parent="1" vertex="1">
          <mxGeometry x="240" y="240" width="40" height="40" as="geometry" />
        </mxCell>
        <mxCell id="lMCzv5Cu2bGb6w6qwe8L-66" value="⇱" style="whiteSpace=wrap;html=1;aspect=fixed;fontSize=16;fillColor=#f5f5f5;strokeColor=#666666;fontFamily=Helvetica;fontStyle=1;fontColor=#333333;" parent="1" vertex="1">
          <mxGeometry x="280" y="240" width="40" height="40" as="geometry" />
        </mxCell>
        <mxCell id="lMCzv5Cu2bGb6w6qwe8L-67" value="" style="whiteSpace=wrap;html=1;aspect=fixed;fontSize=16;fillColor=#f5f5f5;strokeColor=#666666;fontFamily=Helvetica;fontColor=#333333;fontStyle=1;" parent="1" vertex="1">
          <mxGeometry x="400" y="240" width="40" height="40" as="geometry" />
        </mxCell>
        <mxCell id="lMCzv5Cu2bGb6w6qwe8L-69" value="" style="whiteSpace=wrap;html=1;aspect=fixed;fontSize=16;fillColor=#f5f5f5;strokeColor=#666666;fontFamily=Helvetica;fontColor=#333333;fontStyle=1" parent="1" vertex="1">
          <mxGeometry x="280" y="360" width="40" height="40" as="geometry" />
        </mxCell>
        <mxCell id="lMCzv5Cu2bGb6w6qwe8L-70" value="" style="whiteSpace=wrap;html=1;aspect=fixed;fontSize=16;fillColor=#f5f5f5;strokeColor=#666666;fontFamily=Helvetica;fontColor=#333333;fontStyle=1" parent="1" vertex="1">
          <mxGeometry x="400" y="280" width="40" height="40" as="geometry" />
        </mxCell>
        <mxCell id="lMCzv5Cu2bGb6w6qwe8L-71" value="" style="whiteSpace=wrap;html=1;aspect=fixed;fontSize=16;fillColor=#f5f5f5;strokeColor=#666666;fontFamily=Helvetica;fontStyle=1;fontColor=#333333;" parent="1" vertex="1">
          <mxGeometry x="280" y="320" width="40" height="40" as="geometry" />
        </mxCell>
        <mxCell id="lMCzv5Cu2bGb6w6qwe8L-72" value="" style="whiteSpace=wrap;html=1;aspect=fixed;fontSize=16;fillColor=#f5f5f5;strokeColor=#666666;fontFamily=Helvetica;fontStyle=1;fontColor=#333333;" parent="1" vertex="1">
          <mxGeometry x="320" y="320" width="40" height="40" as="geometry" />
        </mxCell>
        <mxCell id="lMCzv5Cu2bGb6w6qwe8L-73" value="⌦" style="whiteSpace=wrap;html=1;aspect=fixed;fontSize=16;fillColor=#f5f5f5;strokeColor=#666666;fontFamily=Helvetica;fontStyle=1;fontColor=#333333;" parent="1" vertex="1">
          <mxGeometry x="320" y="360" width="40" height="40" as="geometry" />
        </mxCell>
        <mxCell id="lMCzv5Cu2bGb6w6qwe8L-74" value="" style="whiteSpace=wrap;html=1;aspect=fixed;fontSize=16;fillColor=#f5f5f5;strokeColor=#666666;fontStyle=1;fontColor=#333333;fontFamily=Helvetica;" parent="1" vertex="1">
          <mxGeometry x="160" y="240" width="40" height="40" as="geometry" />
        </mxCell>
        <mxCell id="lMCzv5Cu2bGb6w6qwe8L-75" value="" style="whiteSpace=wrap;html=1;aspect=fixed;fontSize=16;fillColor=#f5f5f5;strokeColor=#666666;fontStyle=1;fontColor=#333333;fontFamily=Helvetica;" parent="1" vertex="1">
          <mxGeometry y="240" width="40" height="40" as="geometry" />
        </mxCell>
        <mxCell id="lMCzv5Cu2bGb6w6qwe8L-76" value="↑" style="whiteSpace=wrap;html=1;aspect=fixed;fontSize=16;fillColor=#f5f5f5;strokeColor=#666666;fontStyle=1;fontColor=#333333;fontFamily=Helvetica;" parent="1" vertex="1">
          <mxGeometry x="320" y="240" width="40" height="40" as="geometry" />
        </mxCell>
        <mxCell id="lMCzv5Cu2bGb6w6qwe8L-77" value="" style="whiteSpace=wrap;html=1;aspect=fixed;fontSize=16;fillColor=#f5f5f5;strokeColor=#666666;fontStyle=1;fontColor=#333333;fontFamily=Helvetica;" parent="1" vertex="1">
          <mxGeometry x="120" y="240" width="40" height="40" as="geometry" />
        </mxCell>
        <mxCell id="lMCzv5Cu2bGb6w6qwe8L-78" value="" style="whiteSpace=wrap;html=1;aspect=fixed;fontSize=16;fillColor=#f5f5f5;strokeColor=#666666;fontStyle=1;fontColor=#333333;fontFamily=Helvetica;" parent="1" vertex="1">
          <mxGeometry x="40" y="240" width="40" height="40" as="geometry" />
        </mxCell>
        <mxCell id="lMCzv5Cu2bGb6w6qwe8L-81" value="" style="whiteSpace=wrap;html=1;aspect=fixed;fontSize=16;fillColor=#f5f5f5;strokeColor=#666666;fontStyle=1;fontColor=#333333;fontFamily=Helvetica;" parent="1" vertex="1">
          <mxGeometry x="80" y="240" width="40" height="40" as="geometry" />
        </mxCell>
        <mxCell id="lMCzv5Cu2bGb6w6qwe8L-82" value="EXT" style="whiteSpace=wrap;html=1;aspect=fixed;fontSize=16;fontFamily=Helvetica;fontStyle=1;fillColor=#fad9d5;strokeColor=#ae4132;align=center;verticalAlign=middle;labelPosition=center;verticalLabelPosition=middle;" parent="1" vertex="1">
          <mxGeometry x="120" y="360" width="40" height="40" as="geometry" />
        </mxCell>
        <mxCell id="lMCzv5Cu2bGb6w6qwe8L-83" value="" style="whiteSpace=wrap;html=1;aspect=fixed;fontSize=16;fillColor=#f5f5f5;strokeColor=#666666;fontStyle=1;fontFamily=Helvetica;fontColor=#333333;" parent="1" vertex="1">
          <mxGeometry x="80" y="560" width="40" height="40" as="geometry" />
        </mxCell>
        <mxCell id="lMCzv5Cu2bGb6w6qwe8L-84" value="&amp;lt;" style="whiteSpace=wrap;html=1;aspect=fixed;fontSize=16;fillColor=#f5f5f5;strokeColor=#666666;fontStyle=1;fontFamily=Helvetica;fontColor=#333333;" parent="1" vertex="1">
          <mxGeometry x="40" y="520" width="40" height="40" as="geometry" />
        </mxCell>
        <mxCell id="lMCzv5Cu2bGb6w6qwe8L-85" value="&amp;gt;" style="whiteSpace=wrap;html=1;aspect=fixed;fontSize=16;fillColor=#f5f5f5;strokeColor=#666666;fontStyle=1;fontFamily=Helvetica;fontColor=#333333;" parent="1" vertex="1">
          <mxGeometry x="80" y="520" width="40" height="40" as="geometry" />
        </mxCell>
        <mxCell id="lMCzv5Cu2bGb6w6qwe8L-86" value="[" style="whiteSpace=wrap;html=1;aspect=fixed;fontSize=16;fillColor=#f5f5f5;strokeColor=#666666;fontStyle=1;fontFamily=Helvetica;fontColor=#333333;" parent="1" vertex="1">
          <mxGeometry x="40" y="440" width="40" height="40" as="geometry" />
        </mxCell>
        <mxCell id="lMCzv5Cu2bGb6w6qwe8L-87" value="]" style="whiteSpace=wrap;html=1;aspect=fixed;fontSize=16;fillColor=#f5f5f5;strokeColor=#666666;fontStyle=1;fontFamily=Helvetica;fontColor=#333333;" parent="1" vertex="1">
          <mxGeometry x="80" y="440" width="40" height="40" as="geometry" />
        </mxCell>
        <mxCell id="lMCzv5Cu2bGb6w6qwe8L-88" value="" style="whiteSpace=wrap;html=1;aspect=fixed;fontSize=16;fillColor=#f5f5f5;strokeColor=#666666;fontStyle=1;fontFamily=Helvetica;fontColor=#333333;" parent="1" vertex="1">
          <mxGeometry x="160" y="440" width="40" height="40" as="geometry" />
        </mxCell>
        <mxCell id="lMCzv5Cu2bGb6w6qwe8L-89" value="" style="whiteSpace=wrap;html=1;aspect=fixed;fontSize=16;fillColor=#f5f5f5;strokeColor=#666666;fontStyle=1;fontFamily=Helvetica;rotation=0;direction=south;fontColor=#333333;" parent="1" vertex="1">
          <mxGeometry x="120" y="520" width="40" height="40" as="geometry" />
        </mxCell>
        <mxCell id="lMCzv5Cu2bGb6w6qwe8L-90" value="" style="whiteSpace=wrap;html=1;aspect=fixed;fontSize=16;fillColor=#f5f5f5;strokeColor=#666666;fontStyle=1;fontFamily=Helvetica;fontColor=#333333;" parent="1" vertex="1">
          <mxGeometry x="160" y="520" width="40" height="40" as="geometry" />
        </mxCell>
        <mxCell id="lMCzv5Cu2bGb6w6qwe8L-91" value="~" style="whiteSpace=wrap;html=1;aspect=fixed;fontSize=16;fillColor=#f5f5f5;strokeColor=#666666;fontStyle=1;fontFamily=Helvetica;fontColor=#333333;" parent="1" vertex="1">
          <mxGeometry x="241" y="480" width="40" height="40" as="geometry" />
        </mxCell>
        <mxCell id="lMCzv5Cu2bGb6w6qwe8L-92" value="\" style="whiteSpace=wrap;html=1;aspect=fixed;fontSize=16;fillColor=#f5f5f5;strokeColor=#666666;fontStyle=1;fontFamily=Helvetica;fontColor=#333333;" parent="1" vertex="1">
          <mxGeometry x="401" y="520" width="40" height="40" as="geometry" />
        </mxCell>
        <mxCell id="lMCzv5Cu2bGb6w6qwe8L-93" value="SYM" style="whiteSpace=wrap;html=1;aspect=fixed;fontSize=16;fillColor=#fad9d5;strokeColor=#ae4132;fontStyle=1;fontFamily=Helvetica;" parent="1" vertex="1">
          <mxGeometry x="160" y="560" width="40" height="40" as="geometry" />
        </mxCell>
        <mxCell id="lMCzv5Cu2bGb6w6qwe8L-94" value="" style="whiteSpace=wrap;html=1;aspect=fixed;fontSize=16;fillColor=#f5f5f5;strokeColor=#666666;fontStyle=1;fontFamily=Helvetica;fontColor=#333333;" parent="1" vertex="1">
          <mxGeometry y="520" width="40" height="40" as="geometry" />
        </mxCell>
        <mxCell id="lMCzv5Cu2bGb6w6qwe8L-95" value="" style="whiteSpace=wrap;html=1;aspect=fixed;fontSize=16;fillColor=#f5f5f5;strokeColor=#666666;fontStyle=1;fontFamily=Helvetica;fontColor=#333333;" parent="1" vertex="1">
          <mxGeometry x="160" y="480" width="40" height="40" as="geometry" />
        </mxCell>
        <mxCell id="lMCzv5Cu2bGb6w6qwe8L-96" value="`" style="whiteSpace=wrap;html=1;aspect=fixed;fontSize=16;fillColor=#f5f5f5;strokeColor=#666666;fontStyle=1;fontFamily=Helvetica;fontColor=#333333;" parent="1" vertex="1">
          <mxGeometry x="241" y="520" width="40" height="40" as="geometry" />
        </mxCell>
        <mxCell id="lMCzv5Cu2bGb6w6qwe8L-97" value="|" style="whiteSpace=wrap;html=1;aspect=fixed;fontSize=16;fillColor=#f5f5f5;strokeColor=#666666;fontStyle=1;fontFamily=Helvetica;fontColor=#333333;" parent="1" vertex="1">
          <mxGeometry x="401" y="480" width="40" height="40" as="geometry" />
        </mxCell>
        <mxCell id="lMCzv5Cu2bGb6w6qwe8L-98" value="" style="whiteSpace=wrap;html=1;aspect=fixed;fontSize=16;fillColor=#f5f5f5;strokeColor=#666666;fontStyle=1;fontFamily=Helvetica;fontColor=#333333;" parent="1" vertex="1">
          <mxGeometry x="241" y="440" width="40" height="40" as="geometry" />
        </mxCell>
        <mxCell id="lMCzv5Cu2bGb6w6qwe8L-99" value="" style="whiteSpace=wrap;html=1;aspect=fixed;fontSize=16;fillColor=#f5f5f5;strokeColor=#666666;fontStyle=1;fontFamily=Helvetica;fontColor=#333333;" parent="1" vertex="1">
          <mxGeometry y="440" width="40" height="40" as="geometry" />
        </mxCell>
        <mxCell id="lMCzv5Cu2bGb6w6qwe8L-100" value="" style="whiteSpace=wrap;html=1;aspect=fixed;fontSize=16;fillColor=#f5f5f5;strokeColor=#666666;fontStyle=1;fontFamily=Helvetica;fontColor=#333333;" parent="1" vertex="1">
          <mxGeometry x="120" y="440" width="40" height="40" as="geometry" />
        </mxCell>
        <mxCell id="lMCzv5Cu2bGb6w6qwe8L-101" value="{" style="whiteSpace=wrap;html=1;aspect=fixed;fontSize=16;fillColor=#f5f5f5;strokeColor=#666666;fontStyle=1;fontFamily=Helvetica;fontColor=#333333;" parent="1" vertex="1">
          <mxGeometry y="480" width="40" height="40" as="geometry" />
        </mxCell>
        <mxCell id="lMCzv5Cu2bGb6w6qwe8L-102" value="(" style="whiteSpace=wrap;html=1;aspect=fixed;fontSize=16;fillColor=#f5f5f5;strokeColor=#666666;fontStyle=1;fontFamily=Helvetica;fontColor=#333333;" parent="1" vertex="1">
          <mxGeometry x="40" y="480" width="40" height="40" as="geometry" />
        </mxCell>
        <mxCell id="lMCzv5Cu2bGb6w6qwe8L-103" value=")" style="whiteSpace=wrap;html=1;aspect=fixed;fontSize=16;fillColor=#f5f5f5;strokeColor=#666666;fontStyle=1;fontFamily=Helvetica;fontColor=#333333;" parent="1" vertex="1">
          <mxGeometry x="80" y="480" width="40" height="40" as="geometry" />
        </mxCell>
        <mxCell id="lMCzv5Cu2bGb6w6qwe8L-104" value="}" style="whiteSpace=wrap;html=1;aspect=fixed;fontSize=16;fillColor=#f5f5f5;strokeColor=#666666;fontStyle=1;fontFamily=Helvetica;fontColor=#333333;" parent="1" vertex="1">
          <mxGeometry x="120" y="480" width="40" height="40" as="geometry" />
        </mxCell>
        <mxCell id="lMCzv5Cu2bGb6w6qwe8L-105" value="&amp;amp;" style="whiteSpace=wrap;html=1;aspect=fixed;fontSize=16;fillColor=#f5f5f5;strokeColor=#666666;fontStyle=1;fontFamily=Helvetica;fontColor=#333333;" parent="1" vertex="1">
          <mxGeometry x="281" y="440" width="40" height="40" as="geometry" />
        </mxCell>
        <mxCell id="lMCzv5Cu2bGb6w6qwe8L-106" value="$" style="whiteSpace=wrap;html=1;aspect=fixed;fontSize=16;fillColor=#f5f5f5;strokeColor=#666666;fontStyle=1;fontFamily=Helvetica;fontColor=#333333;" parent="1" vertex="1">
          <mxGeometry x="281" y="480" width="40" height="40" as="geometry" />
        </mxCell>
        <mxCell id="lMCzv5Cu2bGb6w6qwe8L-107" value="#" style="whiteSpace=wrap;html=1;aspect=fixed;fontSize=16;fillColor=#f5f5f5;strokeColor=#666666;fontStyle=1;fontFamily=Helvetica;fontColor=#333333;" parent="1" vertex="1">
          <mxGeometry x="361" y="520" width="40" height="40" as="geometry" />
        </mxCell>
        <mxCell id="lMCzv5Cu2bGb6w6qwe8L-108" value="*" style="whiteSpace=wrap;html=1;aspect=fixed;fontSize=16;fillColor=#f5f5f5;strokeColor=#666666;fontStyle=1;fontFamily=Helvetica;fontColor=#333333;" parent="1" vertex="1">
          <mxGeometry x="321" y="440" width="40" height="40" as="geometry" />
        </mxCell>
        <mxCell id="lMCzv5Cu2bGb6w6qwe8L-109" value="^" style="whiteSpace=wrap;html=1;aspect=fixed;fontSize=16;fillColor=#f5f5f5;strokeColor=#666666;fontStyle=1;fontFamily=Helvetica;fontColor=#333333;" parent="1" vertex="1">
          <mxGeometry x="361" y="480" width="40" height="40" as="geometry" />
        </mxCell>
        <mxCell id="lMCzv5Cu2bGb6w6qwe8L-110" value="" style="whiteSpace=wrap;html=1;aspect=fixed;fontSize=16;fillColor=#f5f5f5;strokeColor=#666666;fontStyle=1;fontFamily=Helvetica;fontColor=#333333;" parent="1" vertex="1">
          <mxGeometry x="401" y="440" width="40" height="40" as="geometry" />
        </mxCell>
        <mxCell id="lMCzv5Cu2bGb6w6qwe8L-111" value="!" style="whiteSpace=wrap;html=1;aspect=fixed;fontSize=16;fillColor=#f5f5f5;strokeColor=#666666;fontStyle=1;fontFamily=Helvetica;fontColor=#333333;" parent="1" vertex="1">
          <mxGeometry x="281" y="520" width="40" height="40" as="geometry" />
        </mxCell>
        <mxCell id="lMCzv5Cu2bGb6w6qwe8L-112" value="@" style="whiteSpace=wrap;html=1;aspect=fixed;fontSize=16;fillColor=#f5f5f5;strokeColor=#666666;fontStyle=1;fontFamily=Helvetica;fontColor=#333333;" parent="1" vertex="1">
          <mxGeometry x="321" y="520" width="40" height="40" as="geometry" />
        </mxCell>
        <mxCell id="lMCzv5Cu2bGb6w6qwe8L-113" value="" style="whiteSpace=wrap;html=1;aspect=fixed;fontSize=16;fillColor=#f5f5f5;strokeColor=#666666;fontStyle=1;fontFamily=Helvetica;fontColor=#333333;" parent="1" vertex="1">
          <mxGeometry x="361" y="440" width="40" height="40" as="geometry" />
        </mxCell>
        <mxCell id="lMCzv5Cu2bGb6w6qwe8L-114" value="%" style="whiteSpace=wrap;html=1;aspect=fixed;fontSize=16;fillColor=#f5f5f5;strokeColor=#666666;fontStyle=1;fontFamily=Helvetica;fontColor=#333333;" parent="1" vertex="1">
          <mxGeometry x="321" y="480" width="40" height="40" as="geometry" />
        </mxCell>
        <mxCell id="lMCzv5Cu2bGb6w6qwe8L-115" value="" style="whiteSpace=wrap;html=1;aspect=fixed;fontSize=16;fillColor=#f5f5f5;strokeColor=#666666;fontStyle=1;fontFamily=Helvetica;fontColor=#333333;" parent="1" vertex="1">
          <mxGeometry x="120" y="560" width="40" height="40" as="geometry" />
        </mxCell>
        <mxCell id="lMCzv5Cu2bGb6w6qwe8L-116" value="SYM" style="whiteSpace=wrap;html=1;aspect=fixed;fontSize=16;fillColor=#fad9d5;strokeColor=#ae4132;fontStyle=1;fontFamily=Helvetica;" parent="1" vertex="1">
          <mxGeometry x="241" y="560" width="40" height="40" as="geometry" />
        </mxCell>
        <mxCell id="lMCzv5Cu2bGb6w6qwe8L-117" value="" style="whiteSpace=wrap;html=1;aspect=fixed;fontSize=16;fillColor=#f5f5f5;strokeColor=#666666;fontStyle=1;fontFamily=Helvetica;fontColor=#333333;" parent="1" vertex="1">
          <mxGeometry x="281" y="560" width="40" height="40" as="geometry" />
        </mxCell>
        <mxCell id="lMCzv5Cu2bGb6w6qwe8L-118" value="" style="whiteSpace=wrap;html=1;aspect=fixed;fontSize=16;fillColor=#f5f5f5;strokeColor=#666666;fontStyle=1;fontFamily=Helvetica;fontColor=#333333;" parent="1" vertex="1">
          <mxGeometry x="321" y="560" width="40" height="40" as="geometry" />
        </mxCell>
        <mxCell id="lMCzv5Cu2bGb6w6qwe8L-121" value="" style="whiteSpace=wrap;html=1;aspect=fixed;fontSize=16;fillColor=#f5f5f5;strokeColor=#666666;fontStyle=1;fontColor=#333333;fontFamily=Helvetica;" parent="1" vertex="1">
          <mxGeometry y="640" width="40" height="40" as="geometry" />
        </mxCell>
        <mxCell id="lMCzv5Cu2bGb6w6qwe8L-122" value="" style="whiteSpace=wrap;html=1;aspect=fixed;fontSize=16;fillColor=#f5f5f5;strokeColor=#666666;fontStyle=1;fontColor=#333333;fontFamily=Helvetica;" parent="1" vertex="1">
          <mxGeometry x="120" y="640" width="40" height="40" as="geometry" />
        </mxCell>
        <mxCell id="lMCzv5Cu2bGb6w6qwe8L-123" value="" style="whiteSpace=wrap;html=1;aspect=fixed;fontSize=16;fillColor=#f5f5f5;strokeColor=#666666;fontStyle=1;fontColor=#333333;fontFamily=Helvetica;" parent="1" vertex="1">
          <mxGeometry x="80" y="640" width="40" height="40" as="geometry" />
        </mxCell>
        <mxCell id="lMCzv5Cu2bGb6w6qwe8L-124" value="" style="whiteSpace=wrap;html=1;aspect=fixed;fontSize=16;fillColor=#f5f5f5;strokeColor=#666666;fontStyle=1;fontColor=#333333;fontFamily=Helvetica;" parent="1" vertex="1">
          <mxGeometry x="40" y="640" width="40" height="40" as="geometry" />
        </mxCell>
        <mxCell id="lMCzv5Cu2bGb6w6qwe8L-125" value="" style="whiteSpace=wrap;html=1;aspect=fixed;fontSize=16;fillColor=#f5f5f5;strokeColor=#666666;fontStyle=1;fontColor=#333333;fontFamily=Helvetica;" parent="1" vertex="1">
          <mxGeometry x="160" y="640" width="40" height="40" as="geometry" />
        </mxCell>
        <mxCell id="lMCzv5Cu2bGb6w6qwe8L-126" value="" style="whiteSpace=wrap;html=1;aspect=fixed;fontSize=16;fillColor=#f5f5f5;strokeColor=#666666;fontStyle=1;fontColor=#333333;fontFamily=Helvetica;" parent="1" vertex="1">
          <mxGeometry y="720" width="40" height="40" as="geometry" />
        </mxCell>
        <mxCell id="lMCzv5Cu2bGb6w6qwe8L-127" value="" style="whiteSpace=wrap;html=1;aspect=fixed;fontSize=16;fillColor=#f5f5f5;strokeColor=#666666;fontStyle=1;fontColor=#333333;fontFamily=Helvetica;" parent="1" vertex="1">
          <mxGeometry x="120" y="720" width="40" height="40" as="geometry" />
        </mxCell>
        <mxCell id="lMCzv5Cu2bGb6w6qwe8L-128" value="" style="whiteSpace=wrap;html=1;aspect=fixed;fontSize=16;fillColor=#f5f5f5;strokeColor=#666666;fontStyle=1;fontColor=#333333;fontFamily=Helvetica;" parent="1" vertex="1">
          <mxGeometry x="80" y="720" width="40" height="40" as="geometry" />
        </mxCell>
        <mxCell id="lMCzv5Cu2bGb6w6qwe8L-129" value="" style="whiteSpace=wrap;html=1;aspect=fixed;fontSize=16;fillColor=#f5f5f5;strokeColor=#666666;fontStyle=1;fontColor=#333333;fontFamily=Helvetica;" parent="1" vertex="1">
          <mxGeometry x="40" y="720" width="40" height="40" as="geometry" />
        </mxCell>
        <mxCell id="lMCzv5Cu2bGb6w6qwe8L-130" value="" style="whiteSpace=wrap;html=1;aspect=fixed;fontSize=16;fillColor=#f5f5f5;strokeColor=#666666;fontStyle=1;fontColor=#333333;fontFamily=Helvetica;" parent="1" vertex="1">
          <mxGeometry x="160" y="720" width="40" height="40" as="geometry" />
        </mxCell>
        <mxCell id="lMCzv5Cu2bGb6w6qwe8L-131" value="" style="whiteSpace=wrap;html=1;aspect=fixed;fontSize=16;fillColor=#f5f5f5;strokeColor=#666666;fontStyle=1;fontColor=#333333;fontFamily=Helvetica;" parent="1" vertex="1">
          <mxGeometry x="120" y="760" width="40" height="40" as="geometry" />
        </mxCell>
        <mxCell id="lMCzv5Cu2bGb6w6qwe8L-132" value="" style="whiteSpace=wrap;html=1;aspect=fixed;fontSize=16;fillColor=#f5f5f5;strokeColor=#666666;fontStyle=1;fontFamily=Helvetica;fontColor=#333333;" parent="1" vertex="1">
          <mxGeometry x="160" y="760" width="40" height="40" as="geometry" />
        </mxCell>
        <mxCell id="lMCzv5Cu2bGb6w6qwe8L-133" value="NUM" style="whiteSpace=wrap;html=1;aspect=fixed;fontSize=16;fillColor=#fad9d5;strokeColor=#ae4132;fontStyle=1;fontFamily=Helvetica;" parent="1" vertex="1">
          <mxGeometry x="80" y="760" width="40" height="40" as="geometry" />
        </mxCell>
        <mxCell id="lMCzv5Cu2bGb6w6qwe8L-134" value="*" style="whiteSpace=wrap;html=1;aspect=fixed;fontSize=16;fillColor=#f5f5f5;strokeColor=#666666;fontStyle=1;fontColor=#333333;fontFamily=Helvetica;" parent="1" vertex="1">
          <mxGeometry x="400" y="640" width="40" height="40" as="geometry" />
        </mxCell>
        <mxCell id="lMCzv5Cu2bGb6w6qwe8L-135" value="9" style="whiteSpace=wrap;html=1;aspect=fixed;fontSize=16;fillColor=#f5f5f5;strokeColor=#666666;fontStyle=1;fontColor=#333333;fontFamily=Helvetica;" parent="1" vertex="1">
          <mxGeometry x="360" y="640" width="40" height="40" as="geometry" />
        </mxCell>
        <mxCell id="lMCzv5Cu2bGb6w6qwe8L-136" value="8" style="whiteSpace=wrap;html=1;aspect=fixed;fontSize=16;fillColor=#f5f5f5;strokeColor=#666666;fontStyle=1;fontColor=#333333;fontFamily=Helvetica;" parent="1" vertex="1">
          <mxGeometry x="320" y="640" width="40" height="40" as="geometry" />
        </mxCell>
        <mxCell id="lMCzv5Cu2bGb6w6qwe8L-137" value="7" style="whiteSpace=wrap;html=1;aspect=fixed;fontSize=16;fillColor=#f5f5f5;strokeColor=#666666;fontStyle=1;fontColor=#333333;fontFamily=Helvetica;" parent="1" vertex="1">
          <mxGeometry x="280" y="640" width="40" height="40" as="geometry" />
        </mxCell>
        <mxCell id="lMCzv5Cu2bGb6w6qwe8L-138" value="+" style="whiteSpace=wrap;html=1;aspect=fixed;fontSize=16;fillColor=#f5f5f5;strokeColor=#666666;fontStyle=1;fontColor=#333333;fontFamily=Helvetica;" parent="1" vertex="1">
          <mxGeometry x="240" y="640" width="40" height="40" as="geometry" />
        </mxCell>
        <mxCell id="lMCzv5Cu2bGb6w6qwe8L-139" value="/" style="whiteSpace=wrap;html=1;aspect=fixed;fontSize=16;fillColor=#f5f5f5;strokeColor=#666666;fontStyle=1;fontColor=#333333;fontFamily=Helvetica;" parent="1" vertex="1">
          <mxGeometry x="400" y="680" width="40" height="40" as="geometry" />
        </mxCell>
        <mxCell id="lMCzv5Cu2bGb6w6qwe8L-140" value="6" style="whiteSpace=wrap;html=1;aspect=fixed;fontSize=16;fillColor=#f5f5f5;strokeColor=#666666;fontStyle=1;fontColor=#333333;fontFamily=Helvetica;" parent="1" vertex="1">
          <mxGeometry x="360" y="680" width="40" height="40" as="geometry" />
        </mxCell>
        <mxCell id="lMCzv5Cu2bGb6w6qwe8L-141" value="5" style="whiteSpace=wrap;html=1;aspect=fixed;fontSize=16;fillColor=#f5f5f5;strokeColor=#666666;fontStyle=1;fontColor=#333333;fontFamily=Helvetica;" parent="1" vertex="1">
          <mxGeometry x="320" y="680" width="40" height="40" as="geometry" />
        </mxCell>
        <mxCell id="lMCzv5Cu2bGb6w6qwe8L-142" value="4" style="whiteSpace=wrap;html=1;aspect=fixed;fontSize=16;fillColor=#f5f5f5;strokeColor=#666666;fontStyle=1;fontColor=#333333;fontFamily=Helvetica;" parent="1" vertex="1">
          <mxGeometry x="280" y="680" width="40" height="40" as="geometry" />
        </mxCell>
        <mxCell id="lMCzv5Cu2bGb6w6qwe8L-143" value="-" style="whiteSpace=wrap;html=1;aspect=fixed;fontSize=16;fillColor=#f5f5f5;strokeColor=#666666;fontStyle=1;fontColor=#333333;fontFamily=Helvetica;" parent="1" vertex="1">
          <mxGeometry x="240" y="680" width="40" height="40" as="geometry" />
        </mxCell>
        <mxCell id="lMCzv5Cu2bGb6w6qwe8L-144" value="0" style="whiteSpace=wrap;html=1;aspect=fixed;fontSize=16;fillColor=#f5f5f5;strokeColor=#666666;fontStyle=1;fontColor=#333333;fontFamily=Helvetica;" parent="1" vertex="1">
          <mxGeometry x="240" y="720" width="40" height="40" as="geometry" />
        </mxCell>
        <mxCell id="lMCzv5Cu2bGb6w6qwe8L-145" value="3" style="whiteSpace=wrap;html=1;aspect=fixed;fontSize=16;fillColor=#f5f5f5;strokeColor=#666666;fontStyle=1;fontColor=#333333;fontFamily=Helvetica;" parent="1" vertex="1">
          <mxGeometry x="360" y="720" width="40" height="40" as="geometry" />
        </mxCell>
        <mxCell id="lMCzv5Cu2bGb6w6qwe8L-146" value="2" style="whiteSpace=wrap;html=1;aspect=fixed;fontSize=16;fillColor=#f5f5f5;strokeColor=#666666;fontStyle=1;fontColor=#333333;fontFamily=Helvetica;" parent="1" vertex="1">
          <mxGeometry x="320" y="720" width="40" height="40" as="geometry" />
        </mxCell>
        <mxCell id="lMCzv5Cu2bGb6w6qwe8L-147" value="1" style="whiteSpace=wrap;html=1;aspect=fixed;fontSize=16;fillColor=#f5f5f5;strokeColor=#666666;fontStyle=1;fontColor=#333333;fontFamily=Helvetica;" parent="1" vertex="1">
          <mxGeometry x="280" y="720" width="40" height="40" as="geometry" />
        </mxCell>
        <mxCell id="lMCzv5Cu2bGb6w6qwe8L-148" value="" style="whiteSpace=wrap;html=1;aspect=fixed;fontSize=16;fillColor=#f5f5f5;strokeColor=#666666;fontStyle=1;fontColor=#333333;fontFamily=Helvetica;" parent="1" vertex="1">
          <mxGeometry x="280" y="760" width="40" height="40" as="geometry" />
        </mxCell>
        <mxCell id="lMCzv5Cu2bGb6w6qwe8L-149" value="." style="whiteSpace=wrap;html=1;aspect=fixed;fontSize=16;fillColor=#f5f5f5;strokeColor=#666666;fontStyle=1;fontColor=#333333;fontFamily=Helvetica;" parent="1" vertex="1">
          <mxGeometry x="400" y="720" width="40" height="40" as="geometry" />
        </mxCell>
        <mxCell id="lMCzv5Cu2bGb6w6qwe8L-150" value="" style="whiteSpace=wrap;html=1;aspect=fixed;fontSize=16;fillColor=#f5f5f5;strokeColor=#666666;fontStyle=1;fontColor=#333333;fontFamily=Helvetica;" parent="1" vertex="1">
          <mxGeometry x="240" y="760" width="40" height="40" as="geometry" />
        </mxCell>
        <mxCell id="lMCzv5Cu2bGb6w6qwe8L-151" value="" style="whiteSpace=wrap;html=1;aspect=fixed;fontSize=16;fillColor=#f5f5f5;strokeColor=#666666;fontStyle=1;fontColor=#333333;fontFamily=Helvetica;" parent="1" vertex="1">
          <mxGeometry x="320" y="760" width="40" height="40" as="geometry" />
        </mxCell>
        <mxCell id="lMCzv5Cu2bGb6w6qwe8L-152" value="^" style="whiteSpace=wrap;html=1;aspect=fixed;fontSize=16;fillColor=#f5f5f5;strokeColor=#666666;fontFamily=Helvetica;fontStyle=1;fontColor=#333333;" parent="1" vertex="1">
          <mxGeometry x="80" y="680" width="40" height="40" as="geometry" />
        </mxCell>
        <mxCell id="lMCzv5Cu2bGb6w6qwe8L-153" value="⇧" style="whiteSpace=wrap;html=1;aspect=fixed;fontSize=16;fillColor=#f5f5f5;strokeColor=#666666;fontFamily=Helvetica;fontStyle=1;fontColor=#333333;" parent="1" vertex="1">
          <mxGeometry x="120" y="680" width="40" height="40" as="geometry" />
        </mxCell>
        <mxCell id="lMCzv5Cu2bGb6w6qwe8L-154" value="⎇" style="whiteSpace=wrap;html=1;aspect=fixed;fontSize=16;fillColor=#f5f5f5;strokeColor=#666666;fontFamily=Helvetica;fontStyle=1;fontColor=#333333;" parent="1" vertex="1">
          <mxGeometry x="40" y="680" width="40" height="40" as="geometry" />
        </mxCell>
        <mxCell id="lMCzv5Cu2bGb6w6qwe8L-155" value="✦" style="whiteSpace=wrap;html=1;aspect=fixed;fontSize=16;fillColor=#f5f5f5;strokeColor=#666666;fontFamily=Helvetica;fontStyle=1;fontColor=#333333;" parent="1" vertex="1">
          <mxGeometry y="680" width="40" height="40" as="geometry" />
        </mxCell>
        <mxCell id="lMCzv5Cu2bGb6w6qwe8L-156" value="❖" style="whiteSpace=wrap;html=1;aspect=fixed;fontSize=16;fillColor=#f5f5f5;strokeColor=#666666;fontFamily=Helvetica;fontStyle=1;fontColor=#333333;" parent="1" vertex="1">
          <mxGeometry x="160" y="680" width="40" height="40" as="geometry" />
        </mxCell>
        <mxCell id="lMCzv5Cu2bGb6w6qwe8L-157" value="" style="whiteSpace=wrap;html=1;aspect=fixed;fontSize=16;fillColor=#f5f5f5;strokeColor=#666666;fontStyle=1;fontColor=#333333;fontFamily=Helvetica;" parent="1" vertex="1">
          <mxGeometry x="400" y="840" width="40" height="40" as="geometry" />
        </mxCell>
        <mxCell id="lMCzv5Cu2bGb6w6qwe8L-158" value="" style="whiteSpace=wrap;html=1;aspect=fixed;fontSize=16;fillColor=#f5f5f5;strokeColor=#666666;fontStyle=1;fontColor=#333333;fontFamily=Helvetica;" parent="1" vertex="1">
          <mxGeometry x="320" y="920" width="40" height="40" as="geometry" />
        </mxCell>
        <mxCell id="lMCzv5Cu2bGb6w6qwe8L-159" value="" style="whiteSpace=wrap;html=1;aspect=fixed;fontSize=16;fillColor=#f5f5f5;strokeColor=#666666;fontStyle=1;fontColor=#333333;fontFamily=Helvetica;" parent="1" vertex="1">
          <mxGeometry x="240" y="920" width="40" height="40" as="geometry" />
        </mxCell>
        <mxCell id="lMCzv5Cu2bGb6w6qwe8L-160" value="" style="whiteSpace=wrap;html=1;aspect=fixed;fontSize=16;fillColor=#f5f5f5;strokeColor=#666666;fontStyle=1;fontColor=#333333;fontFamily=Helvetica;" parent="1" vertex="1">
          <mxGeometry x="240" y="840" width="40" height="40" as="geometry" />
        </mxCell>
        <mxCell id="lMCzv5Cu2bGb6w6qwe8L-161" value="" style="whiteSpace=wrap;html=1;aspect=fixed;fontSize=16;fillColor=#f5f5f5;strokeColor=#666666;fontStyle=1;fontColor=#333333;fontFamily=Helvetica;" parent="1" vertex="1">
          <mxGeometry x="400" y="920" width="40" height="40" as="geometry" />
        </mxCell>
        <mxCell id="lMCzv5Cu2bGb6w6qwe8L-162" value="" style="whiteSpace=wrap;html=1;aspect=fixed;fontSize=16;fillColor=#f5f5f5;strokeColor=#666666;fontStyle=1;fontColor=#333333;fontFamily=Helvetica;" parent="1" vertex="1">
          <mxGeometry x="120" y="960" width="40" height="40" as="geometry" />
        </mxCell>
        <mxCell id="lMCzv5Cu2bGb6w6qwe8L-163" value="" style="whiteSpace=wrap;html=1;aspect=fixed;fontSize=16;fillColor=#f5f5f5;strokeColor=#666666;fontStyle=1;fontColor=#333333;fontFamily=Helvetica;" parent="1" vertex="1">
          <mxGeometry x="160" y="960" width="40" height="40" as="geometry" />
        </mxCell>
        <mxCell id="lMCzv5Cu2bGb6w6qwe8L-164" value="" style="whiteSpace=wrap;html=1;aspect=fixed;fontSize=16;fontStyle=1;fillColor=#f5f5f5;fontColor=#333333;strokeColor=#666666;fontFamily=Helvetica;" parent="1" vertex="1">
          <mxGeometry x="80" y="960" width="40" height="40" as="geometry" />
        </mxCell>
        <mxCell id="lMCzv5Cu2bGb6w6qwe8L-165" value="" style="whiteSpace=wrap;html=1;aspect=fixed;fontSize=16;fillColor=#f5f5f5;strokeColor=#666666;fontStyle=1;fontColor=#333333;fontFamily=Helvetica;" parent="1" vertex="1">
          <mxGeometry x="160" y="840" width="40" height="40" as="geometry" />
        </mxCell>
        <mxCell id="lMCzv5Cu2bGb6w6qwe8L-166" value="F9" style="whiteSpace=wrap;html=1;aspect=fixed;fontSize=16;fillColor=#f5f5f5;strokeColor=#666666;fontStyle=1;fontColor=#333333;fontFamily=Helvetica;" parent="1" vertex="1">
          <mxGeometry y="840" width="40" height="40" as="geometry" />
        </mxCell>
        <mxCell id="lMCzv5Cu2bGb6w6qwe8L-167" value="F8" style="whiteSpace=wrap;html=1;aspect=fixed;fontSize=16;fillColor=#f5f5f5;strokeColor=#666666;fontStyle=1;fontColor=#333333;fontFamily=Helvetica;" parent="1" vertex="1">
          <mxGeometry x="120" y="880" width="40" height="40" as="geometry" />
        </mxCell>
        <mxCell id="lMCzv5Cu2bGb6w6qwe8L-168" value="F7" style="whiteSpace=wrap;html=1;aspect=fixed;fontSize=16;fillColor=#f5f5f5;strokeColor=#666666;fontStyle=1;fontColor=#333333;fontFamily=Helvetica;" parent="1" vertex="1">
          <mxGeometry x="80" y="880" width="40" height="40" as="geometry" />
        </mxCell>
        <mxCell id="lMCzv5Cu2bGb6w6qwe8L-169" value="F12" style="whiteSpace=wrap;html=1;aspect=fixed;fontSize=16;fillColor=#f5f5f5;strokeColor=#666666;fontStyle=1;fontColor=#333333;fontFamily=Helvetica;" parent="1" vertex="1">
          <mxGeometry x="120" y="840" width="40" height="40" as="geometry" />
        </mxCell>
        <mxCell id="lMCzv5Cu2bGb6w6qwe8L-170" value="" style="whiteSpace=wrap;html=1;aspect=fixed;fontSize=16;fillColor=#f5f5f5;strokeColor=#666666;fontStyle=1;fontColor=#333333;fontFamily=Helvetica;" parent="1" vertex="1">
          <mxGeometry x="160" y="880" width="40" height="40" as="geometry" />
        </mxCell>
        <mxCell id="lMCzv5Cu2bGb6w6qwe8L-171" value="F6" style="whiteSpace=wrap;html=1;aspect=fixed;fontSize=16;fillColor=#f5f5f5;strokeColor=#666666;fontStyle=1;fontColor=#333333;fontFamily=Helvetica;" parent="1" vertex="1">
          <mxGeometry x="40" y="880" width="40" height="40" as="geometry" />
        </mxCell>
        <mxCell id="lMCzv5Cu2bGb6w6qwe8L-172" value="F5" style="whiteSpace=wrap;html=1;aspect=fixed;fontSize=16;fillColor=#f5f5f5;strokeColor=#666666;fontStyle=1;fontColor=#333333;fontFamily=Helvetica;" parent="1" vertex="1">
          <mxGeometry y="880" width="40" height="40" as="geometry" />
        </mxCell>
        <mxCell id="lMCzv5Cu2bGb6w6qwe8L-173" value="F4" style="whiteSpace=wrap;html=1;aspect=fixed;fontSize=16;fillColor=#f5f5f5;strokeColor=#666666;fontStyle=1;fontColor=#333333;fontFamily=Helvetica;" parent="1" vertex="1">
          <mxGeometry x="120" y="920" width="40" height="40" as="geometry" />
        </mxCell>
        <mxCell id="lMCzv5Cu2bGb6w6qwe8L-174" value="F11" style="whiteSpace=wrap;html=1;aspect=fixed;fontSize=16;fillColor=#f5f5f5;strokeColor=#666666;fontStyle=1;fontColor=#333333;fontFamily=Helvetica;" parent="1" vertex="1">
          <mxGeometry x="80" y="840" width="40" height="40" as="geometry" />
        </mxCell>
        <mxCell id="lMCzv5Cu2bGb6w6qwe8L-175" value="F10" style="whiteSpace=wrap;html=1;aspect=fixed;fontSize=16;fillColor=#f5f5f5;strokeColor=#666666;fontStyle=1;fontColor=#333333;fontFamily=Helvetica;" parent="1" vertex="1">
          <mxGeometry x="40" y="840" width="40" height="40" as="geometry" />
        </mxCell>
        <mxCell id="lMCzv5Cu2bGb6w6qwe8L-176" value="F3" style="whiteSpace=wrap;html=1;aspect=fixed;fontSize=16;fillColor=#f5f5f5;strokeColor=#666666;fontStyle=1;fontColor=#333333;fontFamily=Helvetica;" parent="1" vertex="1">
          <mxGeometry x="80" y="920" width="40" height="40" as="geometry" />
        </mxCell>
        <mxCell id="lMCzv5Cu2bGb6w6qwe8L-177" value="F2" style="whiteSpace=wrap;html=1;aspect=fixed;fontSize=16;fillColor=#f5f5f5;strokeColor=#666666;fontStyle=1;fontColor=#333333;fontFamily=Helvetica;" parent="1" vertex="1">
          <mxGeometry x="40" y="920" width="40" height="40" as="geometry" />
        </mxCell>
        <mxCell id="lMCzv5Cu2bGb6w6qwe8L-178" value="F1" style="whiteSpace=wrap;html=1;aspect=fixed;fontSize=16;fillColor=#f5f5f5;strokeColor=#666666;fontStyle=1;fontColor=#333333;fontFamily=Helvetica;" parent="1" vertex="1">
          <mxGeometry y="920" width="40" height="40" as="geometry" />
        </mxCell>
        <mxCell id="lMCzv5Cu2bGb6w6qwe8L-179" value="" style="whiteSpace=wrap;html=1;aspect=fixed;fontSize=16;fillColor=#f5f5f5;strokeColor=#666666;fontStyle=1;fontColor=#333333;fontFamily=Helvetica;" parent="1" vertex="1">
          <mxGeometry x="160" y="920" width="40" height="40" as="geometry" />
        </mxCell>
        <mxCell id="lMCzv5Cu2bGb6w6qwe8L-180" value="" style="whiteSpace=wrap;html=1;aspect=fixed;fontSize=16;fillColor=#f5f5f5;strokeColor=#666666;fontStyle=1;fontColor=#333333;fontFamily=Helvetica;" parent="1" vertex="1">
          <mxGeometry x="280" y="960" width="40" height="40" as="geometry" />
        </mxCell>
        <mxCell id="lMCzv5Cu2bGb6w6qwe8L-181" value="" style="whiteSpace=wrap;html=1;aspect=fixed;fontSize=16;fillColor=#f5f5f5;strokeColor=#666666;fontStyle=1;fontColor=#333333;fontFamily=Helvetica;" parent="1" vertex="1">
          <mxGeometry x="240" y="960" width="40" height="40" as="geometry" />
        </mxCell>
        <mxCell id="lMCzv5Cu2bGb6w6qwe8L-182" value="FUN" style="whiteSpace=wrap;html=1;aspect=fixed;fontSize=16;fillColor=#fad9d5;strokeColor=#ae4132;fontStyle=1;fontFamily=Helvetica;" parent="1" vertex="1">
          <mxGeometry x="320" y="960" width="40" height="40" as="geometry" />
        </mxCell>
        <mxCell id="lMCzv5Cu2bGb6w6qwe8L-183" value="^" style="whiteSpace=wrap;html=1;aspect=fixed;fontSize=16;fillColor=#f5f5f5;strokeColor=#666666;fontFamily=Helvetica;fontStyle=1;fontColor=#333333;" parent="1" vertex="1">
          <mxGeometry x="320" y="880" width="40" height="40" as="geometry" />
        </mxCell>
        <mxCell id="lMCzv5Cu2bGb6w6qwe8L-184" value="⇧" style="whiteSpace=wrap;html=1;aspect=fixed;fontSize=16;fillColor=#f5f5f5;strokeColor=#666666;fontFamily=Helvetica;fontStyle=1;fontColor=#333333;" parent="1" vertex="1">
          <mxGeometry x="280" y="880" width="40" height="40" as="geometry" />
        </mxCell>
        <mxCell id="lMCzv5Cu2bGb6w6qwe8L-185" value="⎇" style="whiteSpace=wrap;html=1;aspect=fixed;fontSize=16;fillColor=#f5f5f5;strokeColor=#666666;fontFamily=Helvetica;fontStyle=1;fontColor=#333333;" parent="1" vertex="1">
          <mxGeometry x="360" y="880" width="40" height="40" as="geometry" />
        </mxCell>
        <mxCell id="lMCzv5Cu2bGb6w6qwe8L-186" value="✦" style="whiteSpace=wrap;html=1;aspect=fixed;fontSize=16;fillColor=#f5f5f5;strokeColor=#666666;fontFamily=Helvetica;fontStyle=1;fontColor=#333333;" parent="1" vertex="1">
          <mxGeometry x="400" y="880" width="40" height="40" as="geometry" />
        </mxCell>
        <mxCell id="lMCzv5Cu2bGb6w6qwe8L-187" value="❖" style="whiteSpace=wrap;html=1;aspect=fixed;fontSize=16;fillColor=#f5f5f5;strokeColor=#666666;fontFamily=Helvetica;fontStyle=1;fontColor=#333333;" parent="1" vertex="1">
          <mxGeometry x="240" y="880" width="40" height="40" as="geometry" />
        </mxCell>
        <mxCell id="lMCzv5Cu2bGb6w6qwe8L-192" value="M" style="whiteSpace=wrap;html=1;aspect=fixed;fontSize=16;fillColor=#f5f5f5;strokeColor=#666666;fontFamily=Helvetica;fontColor=#333333;fontStyle=1;" parent="1" vertex="1">
          <mxGeometry x="320" y="840" width="40" height="40" as="geometry" />
        </mxCell>
        <mxCell id="lMCzv5Cu2bGb6w6qwe8L-193" value="B+" style="whiteSpace=wrap;html=1;aspect=fixed;fontSize=16;fillColor=#f5f5f5;strokeColor=#666666;fontFamily=Helvetica;fontColor=#333333;fontStyle=1;" parent="1" vertex="1">
          <mxGeometry x="280" y="920" width="40" height="40" as="geometry" />
        </mxCell>
        <mxCell id="lMCzv5Cu2bGb6w6qwe8L-194" value="V+" style="whiteSpace=wrap;html=1;aspect=fixed;fontSize=16;fillColor=#f5f5f5;strokeColor=#666666;fontFamily=Helvetica;fontColor=#333333;fontStyle=1;" parent="1" vertex="1">
          <mxGeometry x="360" y="840" width="40" height="40" as="geometry" />
        </mxCell>
        <mxCell id="lMCzv5Cu2bGb6w6qwe8L-195" value="V-" style="whiteSpace=wrap;html=1;aspect=fixed;fontSize=16;fillColor=#f5f5f5;strokeColor=#666666;fontFamily=Helvetica;fontColor=#333333;fontStyle=1;" parent="1" vertex="1">
          <mxGeometry x="280" y="840" width="40" height="40" as="geometry" />
        </mxCell>
        <mxCell id="lMCzv5Cu2bGb6w6qwe8L-196" value="B-" style="whiteSpace=wrap;html=1;aspect=fixed;fontSize=16;fillColor=#f5f5f5;strokeColor=#666666;fontFamily=Helvetica;fontColor=#333333;fontStyle=1;" parent="1" vertex="1">
          <mxGeometry x="360" y="920" width="40" height="40" as="geometry" />
        </mxCell>
        <mxCell id="BJ3uJSxfFCOLWVJ8z40k-39" value="[" style="rounded=0;whiteSpace=wrap;html=1;fontStyle=1;fontSize=16;fillColor=#e51400;strokeColor=#B20000;fontFamily=Helvetica;fontColor=#ffffff;" parent="1" vertex="1">
          <mxGeometry x="70" width="20" height="40" as="geometry" />
        </mxCell>
        <mxCell id="BJ3uJSxfFCOLWVJ8z40k-40" value="]" style="rounded=0;whiteSpace=wrap;html=1;fontStyle=1;fontSize=16;fillColor=#e51400;strokeColor=#B20000;fontFamily=Helvetica;fontColor=#ffffff;" parent="1" vertex="1">
          <mxGeometry x="110" width="20" height="40" as="geometry" />
        </mxCell>
        <mxCell id="BJ3uJSxfFCOLWVJ8z40k-41" value="(" style="rounded=0;whiteSpace=wrap;html=1;fontStyle=1;fontSize=16;fillColor=#e51400;strokeColor=#B20000;fontFamily=Helvetica;fontColor=#ffffff;" parent="1" vertex="1">
          <mxGeometry x="70" y="40" width="20" height="40" as="geometry" />
        </mxCell>
        <mxCell id="BJ3uJSxfFCOLWVJ8z40k-42" value=")" style="rounded=0;whiteSpace=wrap;html=1;fontStyle=1;fontSize=16;fillColor=#e51400;strokeColor=#B20000;fontFamily=Helvetica;fontColor=#ffffff;" parent="1" vertex="1">
          <mxGeometry x="110" y="40" width="20" height="40" as="geometry" />
        </mxCell>
        <mxCell id="BJ3uJSxfFCOLWVJ8z40k-43" value="{" style="text;html=1;align=center;verticalAlign=middle;whiteSpace=wrap;rounded=0;fontSize=16;fontStyle=1;fillColor=#e51400;strokeColor=#B20000;fontFamily=Helvetica;fontColor=#ffffff;" parent="1" vertex="1">
          <mxGeometry x="70" y="80" width="20" height="40" as="geometry" />
        </mxCell>
        <mxCell id="BJ3uJSxfFCOLWVJ8z40k-44" value="}" style="text;html=1;align=center;verticalAlign=middle;whiteSpace=wrap;rounded=0;fontSize=16;fontStyle=1;fillColor=#e51400;strokeColor=#B20000;fontFamily=Helvetica;fontColor=#ffffff;" parent="1" vertex="1">
          <mxGeometry x="110" y="80" width="20" height="40" as="geometry" />
        </mxCell>
        <mxCell id="BJ3uJSxfFCOLWVJ8z40k-45" value=":" style="rounded=0;whiteSpace=wrap;html=1;fontStyle=1;fontSize=16;fillColor=#e51400;strokeColor=#B20000;fontFamily=Helvetica;fontColor=#ffffff;" parent="1" vertex="1">
          <mxGeometry x="310" y="80" width="20" height="40" as="geometry" />
        </mxCell>
        <mxCell id="BJ3uJSxfFCOLWVJ8z40k-46" value="_" style="rounded=0;whiteSpace=wrap;html=1;fontStyle=1;fontSize=16;fillColor=#e51400;strokeColor=#B20000;fontFamily=Helvetica;fontColor=#ffffff;" parent="1" vertex="1">
          <mxGeometry x="310" y="40" width="20" height="40" as="geometry" />
        </mxCell>
        <mxCell id="BJ3uJSxfFCOLWVJ8z40k-47" value="-" style="rounded=0;whiteSpace=wrap;html=1;fontStyle=1;fontSize=16;fillColor=#e51400;strokeColor=#B20000;fontFamily=Helvetica;fontColor=#ffffff;" parent="1" vertex="1">
          <mxGeometry x="310" width="20" height="40" as="geometry" />
        </mxCell>
        <mxCell id="BJ3uJSxfFCOLWVJ8z40k-48" value=";" style="rounded=0;whiteSpace=wrap;html=1;fontStyle=1;fontSize=16;fillColor=#e51400;strokeColor=#B20000;fontFamily=Helvetica;fontColor=#ffffff;" parent="1" vertex="1">
          <mxGeometry x="350" y="80" width="20" height="40" as="geometry" />
        </mxCell>
        <mxCell id="BJ3uJSxfFCOLWVJ8z40k-49" value="=" style="rounded=0;whiteSpace=wrap;html=1;fontStyle=1;fontSize=16;fillColor=#e51400;strokeColor=#B20000;fontFamily=Helvetica;fontColor=#ffffff;" parent="1" vertex="1">
          <mxGeometry x="350" y="40" width="20" height="40" as="geometry" />
        </mxCell>
        <mxCell id="BJ3uJSxfFCOLWVJ8z40k-50" value="+" style="rounded=0;whiteSpace=wrap;html=1;fontStyle=1;fontSize=16;fillColor=#e51400;strokeColor=#B20000;fontFamily=Helvetica;fontColor=#ffffff;" parent="1" vertex="1">
          <mxGeometry x="350" width="20" height="40" as="geometry" />
        </mxCell>
        <mxCell id="BJ3uJSxfFCOLWVJ8z40k-55" value="⏎" style="whiteSpace=wrap;html=1;aspect=fixed;fontSize=16;fontFamily=Helvetica;fontStyle=1;fillColor=#f5f5f5;fontColor=#333333;strokeColor=#666666;" parent="1" vertex="1">
          <mxGeometry x="240" y="360" width="40" height="40" as="geometry" />
        </mxCell>
        <mxCell id="BJ3uJSxfFCOLWVJ8z40k-56" value="⌦" style="whiteSpace=wrap;html=1;aspect=fixed;fontSize=16;fontFamily=Helvetica;fontStyle=1;fillColor=#f5f5f5;strokeColor=#666666;fontColor=#333333;" parent="1" vertex="1">
          <mxGeometry x="120" y="320" width="40" height="40" as="geometry" />
        </mxCell>
      </root>
    </mxGraphModel>
  </diagram>
</mxfile>
